<?xml version="1.0" encoding="UTF-8" standalone="no"?>
<!DOCTYPE svg PUBLIC "-//W3C//DTD SVG 1.1//EN"
 "http://www.w3.org/Graphics/SVG/1.1/DTD/svg11.dtd">
<!-- Generated by graphviz version 2.38.0 (20140413.2041)
 -->
<!-- Title: G Pages: 1 -->
<svg width="521pt" height="1166pt"
 viewBox="0.00 0.00 521.18 1166.00" xmlns="http://www.w3.org/2000/svg" xmlns:xlink="http://www.w3.org/1999/xlink">
<g id="graph0" class="graph" transform="scale(1 1) rotate(0) translate(4 1162)">
<title>G</title>
<polygon fill="white" stroke="none" points="-4,4 -4,-1162 517.175,-1162 517.175,4 -4,4"/>
<g id="clust1" class="cluster"><title>cluster_Global</title>
<path fill="none" stroke="gray" d="M91.5877,-98C91.5877,-98 493.175,-98 493.175,-98 499.175,-98 505.175,-104 505.175,-110 505.175,-110 505.175,-1138 505.175,-1138 505.175,-1144 499.175,-1150 493.175,-1150 493.175,-1150 91.5877,-1150 91.5877,-1150 85.5877,-1150 79.5877,-1144 79.5877,-1138 79.5877,-1138 79.5877,-110 79.5877,-110 79.5877,-104 85.5877,-98 91.5877,-98"/>
<text text-anchor="middle" x="292.381" y="-1137.2" font-family="Times,serif" font-size="11.00" fill="gray">Global</text>
</g>
<g id="clust2" class="cluster"><title>cluster_\Canjono</title>
<path fill="none" stroke="gray" d="M99.5877,-106C99.5877,-106 485.175,-106 485.175,-106 491.175,-106 497.175,-112 497.175,-118 497.175,-118 497.175,-1110 497.175,-1110 497.175,-1116 491.175,-1122 485.175,-1122 485.175,-1122 99.5877,-1122 99.5877,-1122 93.5877,-1122 87.5877,-1116 87.5877,-1110 87.5877,-1110 87.5877,-118 87.5877,-118 87.5877,-112 93.5877,-106 99.5877,-106"/>
<text text-anchor="middle" x="292.381" y="-1109.2" font-family="Times,serif" font-size="11.00" fill="gray">Canjono</text>
</g>
<g id="clust3" class="cluster"><title>cluster_\Canjono\Database</title>
<path fill="none" stroke="gray" d="M107.588,-968C107.588,-968 477.175,-968 477.175,-968 483.175,-968 489.175,-974 489.175,-980 489.175,-980 489.175,-1082 489.175,-1082 489.175,-1088 483.175,-1094 477.175,-1094 477.175,-1094 107.588,-1094 107.588,-1094 101.588,-1094 95.5877,-1088 95.5877,-1082 95.5877,-1082 95.5877,-980 95.5877,-980 95.5877,-974 101.588,-968 107.588,-968"/>
<text text-anchor="middle" x="292.381" y="-1081.2" font-family="Times,serif" font-size="11.00" fill="gray">Database</text>
</g>
<g id="clust4" class="cluster"><title>cluster_\Canjono\Navbar</title>
<path fill="none" stroke="gray" d="M391.175,-888C391.175,-888 440.175,-888 440.175,-888 446.175,-888 452.175,-894 452.175,-900 452.175,-900 452.175,-948 452.175,-948 452.175,-954 446.175,-960 440.175,-960 440.175,-960 391.175,-960 391.175,-960 385.175,-960 379.175,-954 379.175,-948 379.175,-948 379.175,-900 379.175,-900 379.175,-894 385.175,-888 391.175,-888"/>
<text text-anchor="middle" x="415.675" y="-947.2" font-family="Times,serif" font-size="11.00" fill="gray">Navbar</text>
</g>
<g id="clust5" class="cluster"><title>cluster_\Canjono\Textfilter</title>
<path fill="none" stroke="gray" d="M377.675,-754C377.675,-754 453.675,-754 453.675,-754 459.675,-754 465.675,-760 465.675,-766 465.675,-766 465.675,-868 465.675,-868 465.675,-874 459.675,-880 453.675,-880 453.675,-880 377.675,-880 377.675,-880 371.675,-880 365.675,-874 365.675,-868 365.675,-868 365.675,-766 365.675,-766 365.675,-760 371.675,-754 377.675,-754"/>
<text text-anchor="middle" x="415.675" y="-867.2" font-family="Times,serif" font-size="11.00" fill="gray">Textfilter</text>
</g>
<g id="clust6" class="cluster"><title>cluster_\Canjono\Session</title>
<path fill="none" stroke="gray" d="M387.675,-674C387.675,-674 443.675,-674 443.675,-674 449.675,-674 455.675,-680 455.675,-686 455.675,-686 455.675,-734 455.675,-734 455.675,-740 449.675,-746 443.675,-746 443.675,-746 387.675,-746 387.675,-746 381.675,-746 375.675,-740 375.675,-734 375.675,-734 375.675,-686 375.675,-686 375.675,-680 381.675,-674 387.675,-674"/>
<text text-anchor="middle" x="415.675" y="-733.2" font-family="Times,serif" font-size="11.00" fill="gray">Session</text>
</g>
<g id="clust7" class="cluster"><title>cluster_\Canjono\Cookie</title>
<path fill="none" stroke="gray" d="M391.175,-594C391.175,-594 440.175,-594 440.175,-594 446.175,-594 452.175,-600 452.175,-606 452.175,-606 452.175,-654 452.175,-654 452.175,-660 446.175,-666 440.175,-666 440.175,-666 391.175,-666 391.175,-666 385.175,-666 379.175,-660 379.175,-654 379.175,-654 379.175,-606 379.175,-606 379.175,-600 385.175,-594 391.175,-594"/>
<text text-anchor="middle" x="415.675" y="-653.2" font-family="Times,serif" font-size="11.00" fill="gray">Cookie</text>
</g>
<g id="clust8" class="cluster"><title>cluster_\Canjono\Functions</title>
<path fill="none" stroke="gray" d="M381.175,-514C381.175,-514 450.175,-514 450.175,-514 456.175,-514 462.175,-520 462.175,-526 462.175,-526 462.175,-574 462.175,-574 462.175,-580 456.175,-586 450.175,-586 450.175,-586 381.175,-586 381.175,-586 375.175,-586 369.175,-580 369.175,-574 369.175,-574 369.175,-526 369.175,-526 369.175,-520 375.175,-514 381.175,-514"/>
<text text-anchor="middle" x="415.675" y="-573.2" font-family="Times,serif" font-size="11.00" fill="gray">Functions</text>
</g>
<g id="clust9" class="cluster"><title>cluster_\Canjono\QueryWebshop</title>
<path fill="none" stroke="gray" d="M370.675,-434C370.675,-434 460.675,-434 460.675,-434 466.675,-434 472.675,-440 472.675,-446 472.675,-446 472.675,-494 472.675,-494 472.675,-500 466.675,-506 460.675,-506 460.675,-506 370.675,-506 370.675,-506 364.675,-506 358.675,-500 358.675,-494 358.675,-494 358.675,-446 358.675,-446 358.675,-440 364.675,-434 370.675,-434"/>
<text text-anchor="middle" x="415.675" y="-493.2" font-family="Times,serif" font-size="11.00" fill="gray">QueryWebshop</text>
</g>
<g id="clust10" class="cluster"><title>cluster_\Canjono\App</title>
<path fill="none" stroke="gray" d="M392.675,-354C392.675,-354 438.675,-354 438.675,-354 444.675,-354 450.675,-360 450.675,-366 450.675,-366 450.675,-414 450.675,-414 450.675,-420 444.675,-426 438.675,-426 438.675,-426 392.675,-426 392.675,-426 386.675,-426 380.675,-420 380.675,-414 380.675,-414 380.675,-366 380.675,-366 380.675,-360 386.675,-354 392.675,-354"/>
<text text-anchor="middle" x="415.675" y="-413.2" font-family="Times,serif" font-size="11.00" fill="gray">App</text>
</g>
<g id="clust11" class="cluster"><title>cluster_\Canjono\User</title>
<path fill="none" stroke="gray" d="M392.675,-274C392.675,-274 438.675,-274 438.675,-274 444.675,-274 450.675,-280 450.675,-286 450.675,-286 450.675,-334 450.675,-334 450.675,-340 444.675,-346 438.675,-346 438.675,-346 392.675,-346 392.675,-346 386.675,-346 380.675,-340 380.675,-334 380.675,-334 380.675,-286 380.675,-286 380.675,-280 386.675,-274 392.675,-274"/>
<text text-anchor="middle" x="415.675" y="-333.2" font-family="Times,serif" font-size="11.00" fill="gray">User</text>
</g>
<g id="clust12" class="cluster"><title>cluster_\Canjono\Calendar</title>
<path fill="none" stroke="gray" d="M384.175,-194C384.175,-194 447.175,-194 447.175,-194 453.175,-194 459.175,-200 459.175,-206 459.175,-206 459.175,-254 459.175,-254 459.175,-260 453.175,-266 447.175,-266 447.175,-266 384.175,-266 384.175,-266 378.175,-266 372.175,-260 372.175,-254 372.175,-254 372.175,-206 372.175,-206 372.175,-200 378.175,-194 384.175,-194"/>
<text text-anchor="middle" x="415.675" y="-253.2" font-family="Times,serif" font-size="11.00" fill="gray">Calendar</text>
</g>
<g id="clust13" class="cluster"><title>cluster_\Canjono\Query</title>
<path fill="none" stroke="gray" d="M392.675,-114C392.675,-114 438.675,-114 438.675,-114 444.675,-114 450.675,-120 450.675,-126 450.675,-126 450.675,-174 450.675,-174 450.675,-180 444.675,-186 438.675,-186 438.675,-186 392.675,-186 392.675,-186 386.675,-186 380.675,-180 380.675,-174 380.675,-174 380.675,-126 380.675,-126 380.675,-120 386.675,-114 392.675,-114"/>
<text text-anchor="middle" x="415.675" y="-173.2" font-family="Times,serif" font-size="11.00" fill="gray">Query</text>
</g>
<!-- \\Canjono\\Database\\DatabaseConfigure -->
<g id="node1" class="node"><title>\\Canjono\\Database\\DatabaseConfigure</title>
<polygon fill="none" stroke="black" points="481.175,-1066 350.175,-1066 350.175,-1030 481.175,-1030 481.175,-1066"/>
<text text-anchor="middle" x="415.675" y="-1045.2" font-family="Courier,monospace" font-size="11.00">DatabaseConfigure</text>
</g>
<!-- \\Canjono\\Database\\Database -->
<g id="node3" class="node"><title>\\Canjono\\Database\\Database</title>
<polygon fill="none" stroke="black" points="174.588,-1066 103.588,-1066 103.588,-1030 174.588,-1030 174.588,-1066"/>
<text text-anchor="middle" x="139.088" y="-1045.2" font-family="Courier,monospace" font-size="11.00">Database</text>
</g>
<!-- \\Canjono\\Database\\DatabaseConfigure&#45;&gt;\\Canjono\\Database\\Database -->
<g id="edge1" class="edge"><title>\\Canjono\\Database\\DatabaseConfigure&#45;&gt;\\Canjono\\Database\\Database</title>
<path fill="none" stroke="black" d="M349.95,-1048C299.054,-1048 229.488,-1048 184.666,-1048"/>
<polygon fill="none" stroke="black" points="184.663,-1044.5 174.663,-1048 184.663,-1051.5 184.663,-1044.5"/>
</g>
<!-- \\Anax\\Common\\ConfigureInterface -->
<g id="node15" class="node"><title>\\Anax\\Common\\ConfigureInterface</title>
<ellipse fill="none" stroke="black" cx="139.088" cy="-72" rx="139.175" ry="18"/>
<text text-anchor="middle" x="139.088" y="-68.3" font-family="Times,serif" font-size="14.00" fill="gray">\Anax\Common\ConfigureInterface</text>
</g>
<!-- \\Canjono\\Database\\DatabaseConfigure&#45;&gt;\\Anax\\Common\\ConfigureInterface -->
<g id="edge2" class="edge"><title>\\Canjono\\Database\\DatabaseConfigure&#45;&gt;\\Anax\\Common\\ConfigureInterface</title>
<path fill="none" stroke="black" stroke-dasharray="1,5" d="M359.852,-1029.88C356.267,-1027.3 352.978,-1024.35 350.175,-1021 227.448,-874.137 157.263,-242.422 142.867,-100.417"/>
<polygon fill="none" stroke="black" points="146.336,-99.9331 141.856,-90.3324 139.371,-100.632 146.336,-99.9331"/>
</g>
<!-- \\Canjono\\Database\\Exception -->
<g id="node2" class="node"><title>\\Canjono\\Database\\Exception</title>
<polygon fill="none" stroke="black" points="454.175,-1012 377.175,-1012 377.175,-976 454.175,-976 454.175,-1012"/>
<text text-anchor="middle" x="415.675" y="-991.2" font-family="Courier,monospace" font-size="11.00">Exception</text>
</g>
<!-- \\Exception -->
<g id="node16" class="node"><title>\\Exception</title>
<ellipse fill="none" stroke="black" cx="139.088" cy="-18" rx="50.0912" ry="18"/>
<text text-anchor="middle" x="139.088" y="-14.3" font-family="Times,serif" font-size="14.00" fill="gray">\Exception</text>
</g>
<!-- \\Canjono\\Database\\Exception&#45;&gt;\\Exception -->
<g id="edge4" class="edge"><title>\\Canjono\\Database\\Exception&#45;&gt;\\Exception</title>
<path fill="none" stroke="black" d="M377.156,-984.33C366.807,-979.833 356.654,-973.333 350.175,-964 233.36,-795.724 414.468,-197.928 278.175,-45 258.489,-22.9114 226.519,-15.6806 198.296,-14.1928"/>
<polygon fill="none" stroke="black" points="198.197,-10.6883 188.097,-13.8876 197.988,-17.6852 198.197,-10.6883"/>
</g>
<!-- \\Canjono\\Navbar\\Navbar -->
<g id="node4" class="node"><title>\\Canjono\\Navbar\\Navbar</title>
<polygon fill="none" stroke="black" points="444.175,-932 387.175,-932 387.175,-896 444.175,-896 444.175,-932"/>
<text text-anchor="middle" x="415.675" y="-911.2" font-family="Courier,monospace" font-size="11.00">Navbar</text>
</g>
<!-- \\Canjono\\Navbar\\Navbar&#45;&gt;\\Anax\\Common\\ConfigureInterface -->
<g id="edge3" class="edge"><title>\\Canjono\\Navbar\\Navbar&#45;&gt;\\Anax\\Common\\ConfigureInterface</title>
<path fill="none" stroke="black" stroke-dasharray="1,5" d="M387.109,-907.124C374.177,-902.571 359.579,-895.294 350.175,-884 245.609,-758.411 162.901,-228.82 144.107,-100.223"/>
<polygon fill="none" stroke="black" points="147.527,-99.4154 142.628,-90.0212 140.599,-100.42 147.527,-99.4154"/>
</g>
<!-- \\Canjono\\Textfilter\\Textfilter -->
<g id="node5" class="node"><title>\\Canjono\\Textfilter\\Textfilter</title>
<polygon fill="none" stroke="black" points="457.675,-852 373.675,-852 373.675,-816 457.675,-816 457.675,-852"/>
<text text-anchor="middle" x="415.675" y="-831.2" font-family="Courier,monospace" font-size="11.00">Textfilter</text>
</g>
<!-- \\Canjono\\Textfilter\\Exception -->
<g id="node6" class="node"><title>\\Canjono\\Textfilter\\Exception</title>
<polygon fill="none" stroke="black" points="454.175,-798 377.175,-798 377.175,-762 454.175,-762 454.175,-798"/>
<text text-anchor="middle" x="415.675" y="-777.2" font-family="Courier,monospace" font-size="11.00">Exception</text>
</g>
<!-- \\Canjono\\Textfilter\\Exception&#45;&gt;\\Exception -->
<g id="edge5" class="edge"><title>\\Canjono\\Textfilter\\Exception&#45;&gt;\\Exception</title>
<path fill="none" stroke="black" d="M376.954,-770.088C366.726,-765.593 356.692,-759.156 350.175,-750 258.851,-621.702 384.333,-161.323 278.175,-45 258.304,-23.2255 226.481,-15.9802 198.391,-14.4046"/>
<polygon fill="none" stroke="black" points="198.351,-10.9014 188.24,-14.0642 198.117,-17.8975 198.351,-10.9014"/>
</g>
<!-- \\Canjono\\Session\\Session -->
<g id="node7" class="node"><title>\\Canjono\\Session\\Session</title>
<polygon fill="none" stroke="black" points="447.675,-718 383.675,-718 383.675,-682 447.675,-682 447.675,-718"/>
<text text-anchor="middle" x="415.675" y="-697.2" font-family="Courier,monospace" font-size="11.00">Session</text>
</g>
<!-- \\Canjono\\Cookie\\Cookie -->
<g id="node8" class="node"><title>\\Canjono\\Cookie\\Cookie</title>
<polygon fill="none" stroke="black" points="444.175,-638 387.175,-638 387.175,-602 444.175,-602 444.175,-638"/>
<text text-anchor="middle" x="415.675" y="-617.2" font-family="Courier,monospace" font-size="11.00">Cookie</text>
</g>
<!-- \\Canjono\\Functions\\Functions -->
<g id="node9" class="node"><title>\\Canjono\\Functions\\Functions</title>
<polygon fill="none" stroke="black" points="454.175,-558 377.175,-558 377.175,-522 454.175,-522 454.175,-558"/>
<text text-anchor="middle" x="415.675" y="-537.2" font-family="Courier,monospace" font-size="11.00">Functions</text>
</g>
<!-- \\Canjono\\QueryWebshop\\QueryWebshop -->
<g id="node10" class="node"><title>\\Canjono\\QueryWebshop\\QueryWebshop</title>
<polygon fill="none" stroke="black" points="464.675,-478 366.675,-478 366.675,-442 464.675,-442 464.675,-478"/>
<text text-anchor="middle" x="415.675" y="-457.2" font-family="Courier,monospace" font-size="11.00">QueryWebshop</text>
</g>
<!-- \\Canjono\\App\\App -->
<g id="node11" class="node"><title>\\Canjono\\App\\App</title>
<polygon fill="none" stroke="black" points="442.675,-398 388.675,-398 388.675,-362 442.675,-362 442.675,-398"/>
<text text-anchor="middle" x="415.675" y="-377.2" font-family="Courier,monospace" font-size="11.00">App</text>
</g>
<!-- \\Canjono\\User\\User -->
<g id="node12" class="node"><title>\\Canjono\\User\\User</title>
<polygon fill="none" stroke="black" points="442.675,-318 388.675,-318 388.675,-282 442.675,-282 442.675,-318"/>
<text text-anchor="middle" x="415.675" y="-297.2" font-family="Courier,monospace" font-size="11.00">User</text>
</g>
<!-- \\Canjono\\Calendar\\Calendar -->
<g id="node13" class="node"><title>\\Canjono\\Calendar\\Calendar</title>
<polygon fill="none" stroke="black" points="451.175,-238 380.175,-238 380.175,-202 451.175,-202 451.175,-238"/>
<text text-anchor="middle" x="415.675" y="-217.2" font-family="Courier,monospace" font-size="11.00">Calendar</text>
</g>
<!-- \\Canjono\\Query\\Query -->
<g id="node14" class="node"><title>\\Canjono\\Query\\Query</title>
<polygon fill="none" stroke="black" points="442.675,-158 388.675,-158 388.675,-122 442.675,-122 442.675,-158"/>
<text text-anchor="middle" x="415.675" y="-137.2" font-family="Courier,monospace" font-size="11.00">Query</text>
</g>
</g>
</svg>
